<svg width="252" height="308" viewBox="0 0 252 308" fill="none" xmlns="http://www.w3.org/2000/svg">
<path d="M118.018 301.085C115.871 301.149 113.742 300.786 111.604 300.85C108.618 300.939 105.341 300.94 102.936 303.031C102.751 303.192 102.598 303.574 102.77 303.807C103.234 304.437 104.864 304.027 105.511 304.028C107.86 304.031 110.2 303.988 112.55 303.918C113.256 303.897 113.877 303.654 114.568 303.561C115.117 303.487 115.685 303.504 116.239 303.487C116.964 303.466 117.58 303.391 118.283 303.213C118.776 303.087 118.975 302.743 119.339 302.433M115.906 301.895L118.431 301.82C118.868 301.807 119.511 301.932 119.849 301.611C119.988 301.479 120.113 301.324 120.264 301.207C120.567 300.974 121.182 299.912 121.258 299.529C121.408 298.76 121.342 297.991 121.319 297.213C121.254 295.045 121.267 292.862 120.994 290.709C120.938 290.272 120.691 289.878 120.659 289.449C120.627 289.005 120.64 288.555 120.619 288.11C120.586 287.381 120.387 286.666 120.341 285.935C120.23 284.186 120.129 282.436 120.077 280.675C120.015 278.619 119.528 276.63 119.467 274.583" stroke="white" stroke-width="4" stroke-linecap="round"/>
<path d="M230.715 193.496C231.074 193.24 231.458 193.045 231.812 192.771C232.289 192.403 232.944 192.037 233.299 191.538C233.48 191.283 233.637 191.003 233.788 190.729C233.91 190.506 234.064 190.329 234.156 190.082C234.236 189.865 234.258 189.62 234.303 189.395C234.364 189.085 234.479 188.787 234.559 188.481C234.665 188.072 234.666 187.666 234.712 187.249C234.775 186.68 234.892 186.117 234.921 185.545C234.965 184.674 234.855 183.815 234.83 182.947L234.761 180.669M237.063 200.327C236.767 198.884 236.393 197.49 236.349 196.009C236.311 194.757 236.279 193.523 236.112 192.28C235.911 190.786 236.064 189.251 235.851 187.76C235.743 187.003 235.813 186.238 235.658 185.486C235.562 185.02 235.526 184.478 235.364 184.036M243.435 198.172C243.308 198.292 243.041 197.799 242.98 197.712C242.75 197.387 242.497 197.073 242.273 196.744C242.064 196.437 241.832 196.16 241.597 195.873C241.216 195.408 240.892 194.892 240.522 194.417C240.295 194.124 240.037 193.863 239.796 193.582C239.52 193.258 239.334 192.891 239.128 192.522C238.758 191.857 238.339 191.216 237.944 190.565C237.63 190.049 237.336 189.543 237.075 188.998C236.832 188.492 236.581 187.982 236.262 187.52M247.855 192.231C247.688 192.202 247.525 192.204 247.357 192.194C246.912 192.169 246.498 192.028 246.071 191.913C245.418 191.736 244.745 191.594 244.084 191.447C243.006 191.208 241.984 190.853 240.967 190.428C238.851 189.545 236.627 188.745 234.674 187.526M238.197 189C238.011 188.528 240.286 191.939 237.623 186.516C237.076 185.826 236.746 185.095 236.397 184.289C236.162 183.745 235.866 183.25 235.724 182.663C235.547 181.929 235.362 181.223 235.11 180.51C234.865 179.819 234.64 179.104 234.427 178.403C234.182 177.601 233.801 176.869 233.445 176.111C232.763 174.653 232.209 173.131 231.497 171.688C230.926 170.529 230.406 169.295 229.502 168.339C229.195 168.014 228.821 167.713 228.486 167.415C228.142 167.109 227.753 166.84 227.33 166.662C227.013 166.529 226.739 166.425 226.412 166.33C226.225 166.275 226.009 166.286 225.844 166.182" stroke="white" stroke-width="4" stroke-linecap="round"/>
<path d="M68.3948 240.81C18.5636 198.718 25.8274 65.3778 76.1508 27.6972C101.203 8.93894 165.041 19.8462 191.372 36.4021C241.243 67.7584 225.537 182.071 197.372 236.952C169.206 291.832 104.074 270.948 68.3948 240.81Z" fill="#A9A9A9"/>
<circle cx="99.7403" cy="102.74" r="11.3471" transform="rotate(-1.71353 99.7403 102.74)" stroke="white" stroke-width="4"/>
<circle cx="127.74" cy="107.74" r="11.3471" transform="rotate(-1.71353 127.74 107.74)" stroke="white" stroke-width="4"/>
<circle cx="99.7269" cy="107.186" r="5.28273" transform="rotate(-1.71353 99.7269 107.186)" fill="black"/>
<circle cx="127.727" cy="112.186" r="5.28273" transform="rotate(-1.71353 127.727 112.186)" fill="black"/>
<path d="M202.719 40.7614L205.218 40.8183L205.265 38.7578L203.252 38.3188L202.719 40.7614ZM188.51 284.795L188.138 287.268L190.846 287.675L191.006 284.941L188.51 284.795ZM36.0311 254.341L35.3676 256.752L35.3876 256.757L35.4076 256.762L36.0311 254.341ZM38.9397 17.1482L37.3643 15.2071L36.5538 15.8649L36.4517 16.9038L38.9397 17.1482ZM83.6206 5.8071L83.3439 8.29174L83.3628 8.29385L83.3818 8.29567L83.6206 5.8071ZM234.726 23.7967L237.222 23.945L237.358 21.6497L235.082 21.3222L234.726 23.7967ZM188.889 278.281L186.4 278.047L186.396 278.091L186.393 278.136L188.889 278.281ZM22.9173 250.732L20.4193 250.63L20.3387 252.615L22.2538 253.142L22.9173 250.732ZM191.344 277.047L190.619 274.655L190.413 274.717L190.221 274.814L191.344 277.047ZM215.714 274.477L216.65 276.795L217.972 276.261L218.185 274.852L215.714 274.477ZM99.0417 153.543C99.0729 152.163 97.9792 151.019 96.5988 150.987C95.2185 150.956 94.0742 152.05 94.043 153.43L99.0417 153.543ZM116.091 155.118C116.168 153.74 115.114 152.559 113.735 152.482C112.357 152.404 111.176 153.458 111.099 154.837L116.091 155.118ZM53.2875 21.2053C112.363 26.0791 145.441 30.8341 202.187 43.2041L203.252 38.3188C146.274 25.8983 112.977 21.1128 53.6986 16.2222L53.2875 21.2053ZM188.881 282.323C129.172 273.352 95.8347 267.159 36.6545 251.92L35.4076 256.762C94.7898 272.053 128.301 278.277 188.138 287.268L188.881 282.323ZM38.5273 254.479C43.6239 162.138 47.1932 110.531 55.9816 18.9526L51.0045 18.4749C42.2082 110.135 38.6343 161.812 33.5349 254.204L38.5273 254.479ZM53.7604 16.2281L39.2071 14.6626L38.6724 19.6339L53.2257 21.1994L53.7604 16.2281ZM40.5152 19.0894C46.5196 14.2161 52.0693 10.999 58.6008 9.24035C65.1605 7.47407 72.8981 7.12827 83.3439 8.29174L83.8973 3.32247C73.0978 2.1196 64.6785 2.42575 57.3008 4.41231C49.8948 6.40647 43.7268 10.0432 37.3643 15.2071L40.5152 19.0894ZM83.3818 8.29567C143.47 14.0626 176.569 17.9539 234.37 26.2713L235.082 21.3222C177.196 12.9926 144.019 9.09229 83.8594 3.31854L83.3818 8.29567ZM232.23 23.6485C226.324 123.087 222.82 178.895 213.987 266.199L218.961 266.703C227.805 179.29 231.314 123.396 237.222 23.945L232.23 23.6485ZM200.22 40.7045C198.122 132.843 195.189 184.776 186.4 278.047L191.378 278.516C200.178 185.124 203.118 133.072 205.218 40.8183L200.22 40.7045ZM186.393 278.136L186.014 284.65L191.006 284.941L191.385 278.426L186.393 278.136ZM36.6945 251.931L23.5807 248.321L22.2538 253.142L35.3676 256.752L36.6945 251.931ZM25.4152 250.833C29.0855 160.484 32.3823 109.455 41.4278 17.3927L36.4517 16.9038C27.3959 109.071 24.0931 160.196 20.4193 250.63L25.4152 250.833ZM215.262 264.265C207.25 268.707 198.877 272.155 190.619 274.655L192.068 279.44C200.644 276.844 209.346 273.262 217.686 268.637L215.262 264.265ZM190.221 274.814L187.766 276.047L190.012 280.515L192.466 279.281L190.221 274.814ZM190.091 279.211C195.47 282.325 200.325 282.485 204.81 281.413C206.993 280.891 209.063 280.085 211.007 279.251C213.042 278.378 214.75 277.563 216.65 276.795L214.777 272.159C212.86 272.934 210.801 273.899 209.036 274.656C207.179 275.452 205.415 276.127 203.647 276.55C200.23 277.367 196.717 277.27 192.596 274.884L190.091 279.211ZM94.043 153.43C93.8712 161.028 94.7753 166.737 96.4352 170.608C98.0595 174.397 100.815 177.162 104.509 176.865C107.913 176.591 110.642 173.753 112.483 170.204C114.401 166.507 115.737 161.376 116.091 155.118L111.099 154.837C110.774 160.589 109.556 164.987 108.044 167.902C106.456 170.964 104.881 171.819 104.108 171.881C103.624 171.92 102.329 171.665 101.031 168.638C99.7679 165.693 98.8778 160.791 99.0417 153.543L94.043 153.43ZM218.185 274.852C218.592 272.169 218.902 270.429 218.973 266.496L213.974 266.406C213.909 269.986 213.644 271.45 213.242 274.103L218.185 274.852ZM54.0338 21.1546C68.4744 17.9551 81.0936 16.5288 95.7269 9.74544L93.6241 5.20913C79.6414 11.6908 67.9274 12.9551 52.9523 16.2729L54.0338 21.1546Z" fill="white"/>
<path d="M80.0356 294.085C77.8887 294.149 75.7599 293.785 73.6215 293.849C70.6357 293.939 67.0877 293.478 64.6831 295.569C64.4977 295.73 63.5417 296.365 63.7135 296.598C64.1778 297.228 66.882 297.027 67.5291 297.028C69.878 297.031 72.2182 296.988 74.5676 296.918C75.2742 296.897 75.8947 296.654 76.5858 296.561C77.1352 296.487 77.7025 296.504 78.2565 296.487C78.9823 296.465 79.5975 296.391 80.3009 296.212C80.7941 296.087 80.9932 295.743 81.3573 295.433M77.9242 294.895L80.4492 294.82C80.8858 294.807 81.5288 294.932 81.8667 294.611C82.006 294.479 82.1306 294.323 82.2818 294.207C82.5853 293.974 83.2004 292.912 83.2756 292.528C83.4262 291.76 83.3601 290.991 83.3369 290.213C83.272 288.045 83.2853 285.861 83.0118 283.709C82.9563 283.272 82.709 282.878 82.6775 282.449C82.6448 282.005 82.6578 281.555 82.6374 281.11C82.604 280.381 82.405 279.665 82.3588 278.935C82.2481 277.186 82.1473 275.436 82.0946 273.675C82.0331 271.619 81.5465 269.63 81.4853 267.583" stroke="white" stroke-width="4" stroke-linecap="round"/>
<path d="M8.84974 102.115C8.89366 103.583 8.89841 105.059 8.99234 106.525C9.06082 107.593 9.2496 108.639 9.32794 109.705C9.37116 110.293 9.41421 110.8 9.54845 111.36C9.60319 111.588 9.62081 111.814 9.62778 112.047M14.7463 103.093C14.7602 103.555 14.5351 104.032 14.3811 104.461C14.0911 105.27 13.7373 106.032 13.3232 106.785C12.5951 108.11 12.0295 109.497 11.496 110.906C11.3376 111.325 11.1597 111.75 11.0264 112.176C10.9667 112.367 10.8033 112.519 10.7591 112.708C10.7108 112.913 10.6451 113.089 10.5788 113.29C10.5418 113.402 10.4387 113.431 10.4426 113.562M21.1928 112.807C20.5422 112.862 19.9312 113.146 19.282 113.238C18.9558 113.285 18.6257 113.45 18.3057 113.471C17.8625 113.499 17.4261 113.55 16.9842 113.596C16.047 113.693 15.0812 113.663 14.1389 113.691L10.3056 113.806M2.98581 107.052C3.00809 107.796 3.62939 108.588 4.1162 109.113C4.73765 109.783 5.25387 110.541 5.77912 111.291C5.97684 111.574 6.09859 111.904 6.32366 112.167C6.53249 112.412 6.74653 112.648 6.98055 112.869C7.1572 113.035 7.37474 113.188 7.4563 113.41M8.4912 114.245C8.49507 114.374 8.4774 114.53 8.51151 114.656C8.60724 115.008 8.67632 115.323 8.72959 115.694C8.81415 116.283 8.85738 116.84 8.87533 117.44C8.89487 118.093 8.87031 118.772 9.05172 119.406C9.27052 120.172 9.17656 121.079 9.20025 121.871C9.24394 123.331 9.24643 124.89 9.6216 126.309C9.78839 126.94 9.8709 127.596 10.0635 128.22C10.3219 129.056 10.6975 129.705 11.266 130.369C11.8372 131.037 12.6165 131.671 13.4758 131.893C14.7957 132.235 16.1216 132.148 17.4712 132.107C18.7643 132.069 19.9608 132.131 21.1498 131.554C22.3246 130.984 23.5646 130.516 24.7925 130.072C25.3721 129.862 25.9523 129.573 26.4891 129.267C26.7364 129.126 27.165 128.981 27.3423 128.761C27.434 128.647 27.6651 128.426 27.7876 128.374C28.0515 128.261 28.387 128.238 28.6229 128.071" stroke="white" stroke-width="4" stroke-linecap="round"/>
<path d="M84.1282 96.7583L82.5691 106.78C82.1015 107.194 81.4135 107.615 80.5048 108.042C79.598 108.459 78.4656 108.763 77.1074 108.955C75.7493 109.147 74.1496 109.1 72.3085 108.813C70.6758 108.559 69.2293 108.061 67.9689 107.32C66.7103 106.567 65.6758 105.593 64.8652 104.4C64.0663 103.208 63.5233 101.819 63.2364 100.233C62.9513 98.6347 62.9601 96.8631 63.2627 94.9177L63.5086 93.3371C63.8113 91.3918 64.3295 89.6994 65.0634 88.2599C65.8089 86.8223 66.7317 85.6553 67.8317 84.7591C68.9318 83.8629 70.1726 83.2435 71.5542 82.901C72.9357 82.5585 74.4197 82.5107 76.0061 82.7575C78.2062 83.0997 79.9567 83.7397 81.2578 84.6774C82.5606 85.6035 83.4843 86.7553 84.0291 88.1328C84.5872 89.5004 84.827 91.0083 84.7485 92.6565L79.6941 91.8702C79.7 90.9935 79.573 90.2088 79.3131 89.5161C79.0532 88.8234 78.6154 88.2453 77.9996 87.7818C77.3955 87.3202 76.5665 87.0074 75.5128 86.8435C74.6443 86.7084 73.8406 86.7672 73.1015 87.0199C72.3759 87.2628 71.7283 87.6898 71.1589 88.3009C70.5894 88.912 70.1047 89.7024 69.7048 90.672C69.3049 91.6416 69.0014 92.7922 68.7943 94.1238L68.543 95.7392C68.3376 97.0592 68.2831 98.2486 68.3793 99.3072C68.4773 100.354 68.7212 101.264 69.1111 102.036C69.5143 102.799 70.0594 103.411 70.7465 103.874C71.4335 104.336 72.2692 104.644 73.2534 104.797C74.0756 104.925 74.7696 104.962 75.3354 104.908C75.9128 104.855 76.3848 104.757 76.7512 104.612C77.131 104.458 77.428 104.302 77.6421 104.146L78.3392 99.6647L73.58 98.9243L74.1583 95.2073L84.1282 96.7583Z" fill="white"/>
<path d="M155.465 103.651L160.016 104.236L157.673 122.473C157.452 124.193 156.881 125.602 155.961 126.701C155.05 127.813 153.875 128.589 152.436 129.031C150.995 129.484 149.374 129.595 147.573 129.363C146.782 129.262 145.959 129.05 145.102 128.727C144.257 128.406 143.462 127.973 142.717 127.428C141.983 126.885 141.393 126.242 140.944 125.499L143.539 122.819C144.034 123.568 144.641 124.178 145.36 124.648C146.078 125.13 146.902 125.431 147.832 125.551C148.738 125.667 149.527 125.597 150.198 125.341C150.868 125.096 151.412 124.675 151.831 124.079C152.249 123.495 152.515 122.755 152.63 121.86L154.417 107.947L155.465 103.651ZM141.532 111.68L141.579 111.314C141.764 109.873 142.107 108.587 142.606 107.458C143.119 106.319 143.755 105.367 144.515 104.602C145.286 103.839 146.173 103.285 147.174 102.941C148.175 102.597 149.268 102.501 150.454 102.653C151.709 102.814 152.731 103.182 153.52 103.756C154.309 104.33 154.921 105.082 155.357 106.012C155.794 106.931 156.089 107.991 156.242 109.192C156.408 110.383 156.49 111.676 156.489 113.069L156.386 113.871C156.043 115.162 155.624 116.349 155.131 117.432C154.637 118.515 154.051 119.444 153.373 120.219C152.696 120.983 151.903 121.543 150.995 121.899C150.098 122.256 149.069 122.36 147.906 122.211C146.744 122.061 145.723 121.688 144.843 121.091C143.974 120.495 143.264 119.724 142.712 118.779C142.159 117.834 141.778 116.757 141.567 115.548C141.367 114.341 141.356 113.052 141.532 111.68ZM146.6 111.959L146.553 112.325C146.453 113.104 146.436 113.84 146.5 114.533C146.565 115.227 146.72 115.855 146.967 116.419C147.227 116.972 147.576 117.425 148.015 117.776C148.468 118.118 149.025 118.331 149.688 118.416C150.606 118.534 151.38 118.439 152.011 118.13C152.642 117.809 153.148 117.325 153.526 116.677C153.905 116.028 154.175 115.259 154.337 114.37L154.63 112.086C154.701 111.351 154.686 110.682 154.587 110.078C154.488 109.463 154.309 108.926 154.049 108.467C153.789 108.009 153.424 107.631 152.954 107.334C152.484 107.037 151.906 106.845 151.221 106.757C150.558 106.672 149.963 106.749 149.436 106.989C148.922 107.218 148.47 107.567 148.079 108.037C147.699 108.508 147.383 109.082 147.131 109.759C146.88 110.423 146.703 111.157 146.6 111.959ZM170.238 97.5029L166.798 124.283L161.76 123.636L165.199 96.8557L170.238 97.5029ZM179.586 126.28C178.121 126.092 176.838 125.691 175.735 125.076C174.634 124.45 173.73 123.667 173.024 122.725C172.33 121.786 171.838 120.736 171.55 119.576C171.263 118.405 171.2 117.192 171.362 115.937L171.451 115.239C171.635 113.81 172.006 112.528 172.565 111.395C173.124 110.262 173.838 109.308 174.705 108.533C175.584 107.76 176.6 107.211 177.752 106.886C178.906 106.55 180.169 106.47 181.54 106.646C182.877 106.818 184.034 107.191 185.012 107.766C185.99 108.34 186.775 109.079 187.368 109.982C187.972 110.887 188.382 111.932 188.596 113.117C188.811 114.291 188.83 115.57 188.652 116.953L188.384 119.045L173.39 117.119L173.82 113.771L183.88 115.064L183.929 114.68C184.018 113.983 183.971 113.344 183.785 112.765C183.613 112.176 183.297 111.687 182.839 111.297C182.381 110.907 181.763 110.662 180.984 110.562C180.322 110.477 179.733 110.549 179.22 110.779C178.706 111.008 178.264 111.365 177.895 111.849C177.537 112.335 177.237 112.923 176.995 113.612C176.766 114.292 176.597 115.05 176.49 115.887L176.4 116.584C176.303 117.34 176.318 118.05 176.445 118.717C176.584 119.384 176.821 119.976 177.157 120.492C177.504 121.009 177.946 121.432 178.482 121.761C179.031 122.091 179.671 122.303 180.403 122.397C181.31 122.514 182.175 122.448 182.999 122.199C183.835 121.94 184.585 121.487 185.247 120.84L187.347 123.803C186.879 124.322 186.268 124.799 185.515 125.234C184.774 125.67 183.905 125.996 182.909 126.21C181.914 126.413 180.806 126.437 179.586 126.28Z" fill="white"/>
<path d="M96.5422 153.487C95.8709 183.177 112.238 178.996 113.594 154.978" stroke="white" stroke-width="5" stroke-linecap="round"/>
</svg>
