<svg width="319" height="358" viewBox="0 0 319 358" fill="none" xmlns="http://www.w3.org/2000/svg">
<path d="M100.85 233.841V273.203C100.85 273.947 100.937 274.653 100.605 275.316M99.7885 275.855C97.1755 279.359 94.2587 282.646 91.5337 286.053M100.343 275.786C101.008 277.171 101.679 278.551 102.301 279.956C102.903 281.315 103.578 282.702 103.989 284.133C104.206 284.89 104.487 285.593 104.81 286.311C104.91 286.533 105.06 286.773 105.06 287.024M99.3028 277.243V284.85C99.3028 285.113 99.3779 285.911 99.0947 286.053" stroke="white" stroke-width="4" stroke-linecap="round"/>
<path d="M221.317 230V269.363C221.317 270.106 221.403 270.812 221.071 271.476M220.255 272.015C217.642 275.518 214.725 278.806 212 282.212M220.81 271.946C221.475 273.331 222.145 274.711 222.767 276.115C223.37 277.474 224.044 278.861 224.455 280.293C224.673 281.049 224.953 281.752 225.276 282.47C225.376 282.692 225.527 282.932 225.527 283.183M219.769 273.402V281.01C219.769 281.273 219.844 282.07 219.561 282.212" stroke="white" stroke-width="4" stroke-linecap="round"/>
<path d="M185.5 347C185.5 351.971 174.926 358 162.5 358C150.074 358 140 356.471 140 351.5C140 346.529 150.074 340 162.5 340C174.926 340 185.5 342.029 185.5 347Z" fill="#A9A9A9"/>
<path d="M158.884 249C158.71 242.224 158.017 232.995 154.053 227.297C148.947 219.955 142.585 212.85 136.542 206.267C131.539 200.818 127.95 195.283 125.602 188.252C122.893 180.138 119.695 170.952 121.553 162.294C123.247 154.401 132.02 146.998 137.999 142.186C143.657 137.632 152.514 135.808 159.665 136.016C177.196 136.526 194.045 151.647 195.824 169.209C197.321 183.992 189.073 194.686 178.988 204.352C174.957 208.216 172.413 212.656 169.113 217.048C167.108 219.718 166.366 223.238 164.318 225.736C162.7 227.711 162.492 231.726 161.583 234.177C160.817 236.243 158.364 228.76 158.244 228.432C155.983 222.25 155.687 216.417 155.687 209.92C155.687 199.786 157.831 186.463 151.851 177.507" stroke="#A9A9A9" stroke-width="62" stroke-linecap="round"/>
<path d="M183.824 162.511C182.506 160.672 181.069 162.237 179.89 163.524C178.835 164.675 178.239 165.339 178.043 166.972C177.887 168.266 178.156 169.563 178.857 170.637C179.947 172.307 180.944 172.959 182.728 172.959C184.364 172.959 186.495 173.261 187.935 172.23C190.393 170.471 190.647 165.789 188.749 163.524C186.85 161.257 183.476 159.742 181.298 162.443C180.214 163.787 179.316 165.196 179.316 167.018C179.316 168.754 179.807 168.909 181.413 169.26C183.148 169.638 185.025 169.515 186.787 169.476C188.213 169.445 186.176 166.735 185.806 166.472C184.078 165.239 182.96 165.626 182.738 167.906C182.615 169.176 183.925 169.324 184.763 169.476" stroke="black" stroke-width="6" stroke-linecap="round"/>
<path d="M136.824 155.511C135.506 153.672 134.069 155.237 132.89 156.524C131.835 157.675 131.239 158.339 131.043 159.972C130.887 161.266 131.156 162.563 131.857 163.637C132.947 165.307 133.944 165.959 135.728 165.959C137.364 165.959 139.495 166.261 140.935 165.23C143.393 163.471 143.647 158.789 141.749 156.524C139.85 154.257 136.476 152.742 134.298 155.443C133.214 156.787 132.316 158.196 132.316 160.018C132.316 161.754 132.807 161.909 134.413 162.26C136.148 162.638 138.025 162.515 139.787 162.476C141.213 162.445 139.176 159.735 138.806 159.472C137.078 158.239 135.96 158.626 135.738 160.906C135.615 162.176 136.925 162.324 137.763 162.476" stroke="black" stroke-width="6" stroke-linecap="round"/>
<path d="M149.46 295.658C149.46 278.917 148.807 254.808 148.807 238.051V186.21C148.807 181.974 148.929 177.689 149.013 173.395M149.013 173.395C149.152 166.252 149.182 159.085 148.362 152.078C147.986 148.872 147.142 146.363 145.496 143.594C144.571 142.038 144.073 140.177 142.334 139.365C139.368 137.979 132.343 138.845 129.909 140.725C127.113 142.885 125.119 144.975 124.449 148.566C123.303 154.718 124.173 160.586 129.143 164.84C134.505 169.43 142.015 171.892 149.013 173.395ZM149.013 173.395C150.028 173.613 151.032 173.81 152.018 173.992C157.78 175.051 163.801 175.635 169.806 175.799M169.806 175.799C173.969 175.912 178.124 175.824 182.18 175.55C192.18 174.875 196.957 165.115 195.841 156.035C195.179 150.652 189.945 144.307 186.404 140.478C184.452 138.367 181.779 136.051 178.746 136.001C175.783 135.953 174.385 137.305 173.584 140.28C172.112 145.742 171.802 151.758 171.459 157.371C171.081 163.558 170.121 169.623 169.806 175.799ZM169.806 175.799C169.748 176.924 169.712 178.052 169.705 179.186C169.642 189.118 169.995 199.087 169.606 209.014C169.329 216.097 168.049 223.053 167.284 230.087C167.037 236.001 167.33 241.001 167.433 246.336C167.89 252.297 167.482 258.439 167.482 264.416C167.482 268.936 168.371 273.293 168.371 277.772C168.371 281.566 168.371 293.177 168.371 297" stroke="white" stroke-width="5" stroke-linecap="round"/>
<path d="M137 309L135.948 311.268C136.298 311.43 136.681 311.509 137.067 311.499L137 309ZM182 309L183.895 307.369L183.169 306.526L182.056 306.501L182 309ZM137 319L136.86 316.504C135.577 316.576 134.557 317.609 134.502 318.894L137 319ZM182 319L181.909 321.498L183.314 321.549L184.088 320.375L182 319ZM147 329L147.168 326.506C147.127 326.503 147.086 326.501 147.046 326.5L147 329ZM172.159 331.495C173.537 331.407 174.583 330.219 174.495 328.841C174.407 327.463 173.219 326.417 171.841 326.505L172.159 331.495ZM73.0001 170L70.5073 169.811C70.5055 169.835 70.504 169.859 70.5029 169.883L73.0001 170ZM160 83L159.895 80.5022C159.882 80.5028 159.869 80.5034 159.855 80.5042L160 83ZM247 170L249.486 170.269L249.487 170.257L247 170ZM94.0001 222L95.8674 220.338C95.8463 220.314 95.8248 220.291 95.8028 220.268L94.0001 222ZM186 298.5V301C187.185 301 188.207 300.169 188.448 299.009L186 298.5ZM226.5 222L228.461 223.55C228.495 223.507 228.528 223.463 228.559 223.418L226.5 222ZM162.5 3C162.5 1.61929 161.381 0.5 160 0.5C158.619 0.5 157.5 1.61929 157.5 3H162.5ZM157.5 64.3116C157.5 65.6923 158.619 66.8116 160 66.8116C161.381 66.8116 162.5 65.6923 162.5 64.3116H157.5ZM262 154.5C260.619 154.5 259.5 155.619 259.5 157C259.5 158.381 260.619 159.5 262 159.5V154.5ZM315.567 159.5C316.948 159.5 318.067 158.381 318.067 157C318.067 155.619 316.948 154.5 315.567 154.5V159.5ZM3 154.5C1.61929 154.5 0.5 155.619 0.5 157C0.5 158.381 1.61929 159.5 3 159.5V154.5ZM56.567 159.5C57.9477 159.5 59.067 158.381 59.067 157C59.067 155.619 57.9477 154.5 56.567 154.5V159.5ZM44.7678 62.2322C43.7915 61.2559 42.2085 61.2559 41.2322 62.2322C40.2559 63.2085 40.2559 64.7915 41.2322 65.7678L44.7678 62.2322ZM80.9352 105.471C81.9115 106.447 83.4945 106.447 84.4708 105.471C85.4471 104.494 85.4471 102.912 84.4708 101.935L80.9352 105.471ZM288.471 65.7678C289.447 64.7915 289.447 63.2085 288.471 62.2322C287.495 61.2559 285.912 61.2559 284.935 62.2322L288.471 65.7678ZM245.232 101.935C244.256 102.912 244.256 104.494 245.232 105.471C246.209 106.447 247.792 106.447 248.768 105.471L245.232 101.935ZM137.067 311.499C154.999 311.021 164.732 311.112 181.944 311.499L182.056 306.501C164.79 306.112 154.971 306.02 136.933 306.501L137.067 311.499ZM137.14 321.496C154.594 320.518 164.349 320.86 181.909 321.498L182.091 316.502C164.503 315.862 154.556 315.513 136.86 316.504L137.14 321.496ZM146.832 331.494C156.588 332.151 162.175 332.13 172.159 331.495L171.841 326.505C162.059 327.128 156.691 327.147 147.168 326.506L146.832 331.494ZM75.493 170.189C78.7915 126.655 116.083 88.0492 160.145 85.4958L159.855 80.5042C113.166 83.2098 73.9853 123.91 70.5073 169.811L75.493 170.189ZM160.105 85.4978C211.681 83.3265 249.544 120.996 244.513 169.743L249.487 170.257C254.864 118.154 214.184 78.2167 159.895 80.5022L160.105 85.4978ZM92.1329 223.662C104.065 237.065 112.267 247.733 118.249 259.088C124.217 270.418 128.038 282.554 131.041 298.95L135.959 298.05C132.896 281.324 128.946 268.667 122.672 256.757C116.411 244.871 107.896 233.85 95.8674 220.338L92.1329 223.662ZM188.448 299.009C194.57 269.564 203.887 254.641 228.461 223.55L224.539 220.45C199.784 251.769 189.909 267.421 183.552 297.991L188.448 299.009ZM95.8028 220.268C86.5741 210.663 81.3346 203.192 78.466 195.691C75.6052 188.211 75.0116 180.467 75.4974 170.117L70.5029 169.883C70.0037 180.518 70.5769 189.06 73.7959 197.477C77.0069 205.873 82.7599 213.91 92.1974 223.732L95.8028 220.268ZM228.559 223.418C235.804 212.899 240.515 204.661 243.675 196.486C246.842 188.291 248.404 180.277 249.486 170.269L244.515 169.731C243.459 179.498 241.964 187.042 239.011 194.683C236.051 202.343 231.58 210.216 224.441 220.582L228.559 223.418ZM133.5 301H186V296H133.5V301ZM131.126 297.717C130.302 300.218 129.715 302.863 130.362 305.337C131.063 308.019 133.032 309.915 135.948 311.268L138.052 306.732C135.984 305.773 135.402 304.847 135.199 304.072C134.942 303.088 135.098 301.639 135.874 299.283L131.126 297.717ZM180.105 310.631C181.515 312.269 181.726 313.141 181.702 313.75C181.672 314.522 181.254 315.588 179.912 317.625L184.088 320.375C185.442 318.319 186.609 316.228 186.698 313.945C186.794 311.498 185.657 309.416 183.895 307.369L180.105 310.631ZM134.502 318.894C134.356 322.319 134.488 325.767 136.635 328.209C138.813 330.687 142.401 331.416 146.954 331.5L147.046 326.5C142.596 326.419 141.035 325.642 140.39 324.908C139.713 324.138 139.346 322.668 139.498 319.106L134.502 318.894ZM157.5 3V64.3116H162.5V3H157.5ZM262 159.5H315.567V154.5H262V159.5ZM3 159.5H56.567V154.5H3V159.5ZM41.2322 65.7678L80.9352 105.471L84.4708 101.935L44.7678 62.2322L41.2322 65.7678ZM284.935 62.2322L245.232 101.935L248.768 105.471L288.471 65.7678L284.935 62.2322Z" fill="white"/>
</svg>
