<svg width="294" height="338" viewBox="0 0 294 338" fill="none" xmlns="http://www.w3.org/2000/svg">
<path d="M86.3504 213.841V253.203C86.3504 253.947 86.4368 254.653 86.105 255.316M85.2885 255.855C82.6755 259.359 79.7587 262.646 77.0337 266.053M85.8434 255.786C86.5082 257.171 87.1786 258.551 87.8011 259.956C88.4033 261.315 89.078 262.702 89.489 264.133C89.7062 264.89 89.9869 265.593 90.3099 266.311C90.4097 266.533 90.5604 266.773 90.5604 267.024M84.8028 257.243V264.85C84.8028 265.113 84.8779 265.911 84.5947 266.053" stroke="white" stroke-width="4" stroke-linecap="round"/>
<path d="M206.817 210V249.363C206.817 250.106 206.903 250.812 206.571 251.476M205.755 252.015C203.142 255.518 200.225 258.806 197.5 262.212M206.31 251.946C206.975 253.331 207.645 254.711 208.267 256.115C208.87 257.474 209.544 258.861 209.955 260.293C210.173 261.049 210.453 261.752 210.776 262.47C210.876 262.692 211.027 262.932 211.027 263.183M205.269 253.402V261.01C205.269 261.273 205.344 262.07 205.061 262.212" stroke="white" stroke-width="4" stroke-linecap="round"/>
<path d="M171 327C171 331.971 160.426 338 148 338C135.574 338 125.5 336.471 125.5 331.5C125.5 326.529 135.574 320 148 320C160.426 320 171 322.029 171 327Z" fill="#A9A9A9"/>
<path d="M144.384 229C144.21 222.224 143.517 212.995 139.553 207.297C134.447 199.955 128.085 192.85 122.042 186.267C117.039 180.818 113.45 175.283 111.102 168.252C108.393 160.138 105.195 150.952 107.053 142.294C108.747 134.401 117.52 126.998 123.499 122.186C129.157 117.632 138.014 115.808 145.165 116.016C162.696 116.526 179.545 131.647 181.324 149.209C182.821 163.992 174.573 174.686 164.488 184.352C160.457 188.216 157.913 192.656 154.613 197.048C152.608 199.718 151.866 203.238 149.818 205.736C148.2 207.711 147.992 211.726 147.083 214.177C146.317 216.243 143.864 208.76 143.744 208.432C141.483 202.25 141.187 196.417 141.187 189.92C141.187 179.786 143.331 166.463 137.351 157.507" stroke="#A9A9A9" stroke-width="62" stroke-linecap="round"/>
<path d="M169.324 142.511C168.006 140.672 166.569 142.237 165.39 143.524C164.335 144.675 163.739 145.339 163.543 146.972C163.387 148.266 163.656 149.563 164.357 150.637C165.447 152.307 166.444 152.959 168.228 152.959C169.864 152.959 171.995 153.261 173.435 152.23C175.893 150.471 176.147 145.789 174.249 143.524C172.35 141.257 168.976 139.742 166.798 142.443C165.714 143.787 164.816 145.196 164.816 147.018C164.816 148.754 165.307 148.909 166.913 149.26C168.648 149.638 170.525 149.515 172.287 149.476C173.713 149.445 171.676 146.735 171.306 146.472C169.578 145.239 168.46 145.626 168.238 147.906C168.115 149.176 169.425 149.324 170.263 149.476" stroke="black" stroke-width="6" stroke-linecap="round"/>
<path d="M122.324 135.511C121.006 133.672 119.569 135.237 118.39 136.524C117.335 137.675 116.739 138.339 116.543 139.972C116.387 141.266 116.656 142.563 117.357 143.637C118.447 145.307 119.444 145.959 121.228 145.959C122.864 145.959 124.995 146.261 126.435 145.23C128.893 143.471 129.147 138.789 127.249 136.524C125.35 134.257 121.976 132.742 119.798 135.443C118.714 136.787 117.816 138.196 117.816 140.018C117.816 141.754 118.307 141.909 119.913 142.26C121.648 142.638 123.525 142.515 125.287 142.476C126.713 142.445 124.676 139.735 124.306 139.472C122.578 138.239 121.46 138.626 121.238 140.906C121.115 142.176 122.425 142.324 123.263 142.476" stroke="black" stroke-width="6" stroke-linecap="round"/>
<path d="M134.96 275.658C134.96 258.917 134.307 234.808 134.307 218.051V166.21C134.307 161.974 134.429 157.689 134.513 153.395M134.513 153.395C134.652 146.252 134.682 139.085 133.862 132.078C133.486 128.872 132.642 126.363 130.996 123.594C130.071 122.038 129.573 120.177 127.834 119.365C124.868 117.979 117.843 118.845 115.409 120.725C112.613 122.885 110.619 124.975 109.949 128.566C108.803 134.718 109.673 140.586 114.643 144.84C120.005 149.43 127.515 151.892 134.513 153.395ZM134.513 153.395C135.528 153.613 136.532 153.81 137.518 153.992C143.28 155.051 149.301 155.635 155.306 155.799M155.306 155.799C159.469 155.912 163.624 155.824 167.68 155.55C177.68 154.875 182.457 145.115 181.341 136.035C180.679 130.652 175.445 124.307 171.904 120.478C169.952 118.367 167.279 116.051 164.246 116.001C161.283 115.953 159.885 117.305 159.084 120.28C157.612 125.742 157.302 131.758 156.959 137.371C156.581 143.558 155.621 149.623 155.306 155.799ZM155.306 155.799C155.248 156.924 155.212 158.052 155.205 159.186C155.142 169.118 155.106 178.5 155.106 189.014C154.829 196.097 155.106 202.5 155.106 210C155.306 216 155.004 221.665 155.106 227C155.106 233 155.306 238.523 155.306 244.5C155.306 249.019 155.306 253.021 155.306 257.5C155.306 261.294 155.106 271 155.306 276.5" stroke="white" stroke-width="8" stroke-linecap="round"/>
<path d="M122.5 289L120.817 292.629C121.377 292.888 121.99 293.015 122.607 292.999L122.5 289ZM167.5 289L170.532 286.391L169.37 285.041L167.59 285.001L167.5 289ZM122.5 299L122.276 295.006C120.223 295.121 118.591 296.775 118.504 298.83L122.5 299ZM167.5 299L167.355 302.997L169.603 303.079L170.84 301.2L167.5 299ZM132.5 309L132.769 305.009C132.703 305.005 132.638 305.002 132.573 305.001L132.5 309ZM157.754 312.992C159.959 312.852 161.632 310.951 161.492 308.746C161.352 306.541 159.451 304.868 157.246 305.008L157.754 312.992ZM58.5001 150L54.5116 149.698C54.5087 149.736 54.5063 149.774 54.5045 149.812L58.5001 150ZM145.5 63L145.332 59.0035C145.311 59.0044 145.29 59.0055 145.269 59.0067L145.5 63ZM232.5 150L236.477 150.43C236.478 150.423 236.478 150.417 236.479 150.411L232.5 150ZM79.5001 202L82.4877 199.34C82.454 199.302 82.4196 199.265 82.3845 199.229L79.5001 202ZM171.5 278.5V282.5C173.395 282.5 175.031 281.17 175.416 279.314L171.5 278.5ZM212 202L215.138 204.48C215.193 204.412 215.245 204.341 215.294 204.269L212 202ZM149.5 4C149.5 1.79086 147.709 0 145.5 0C143.291 0 141.5 1.79086 141.5 4H149.5ZM141.5 44.3116C141.5 46.5208 143.291 48.3116 145.5 48.3116C147.709 48.3116 149.5 46.5208 149.5 44.3116H141.5ZM247.5 133C245.291 133 243.5 134.791 243.5 137C243.5 139.209 245.291 141 247.5 141V133ZM289.5 141C291.709 141 293.5 139.209 293.5 137C293.5 134.791 291.709 133 289.5 133V141ZM4 133C1.79086 133 0 134.791 0 137C0 139.209 1.79086 141 4 141V133ZM42.067 141C44.2761 141 46.067 139.209 46.067 137C46.067 134.791 44.2761 133 42.067 133V141ZM40.3284 50.1716C38.7663 48.6095 36.2337 48.6095 34.6716 50.1716C33.1095 51.7337 33.1095 54.2663 34.6716 55.8284L40.3284 50.1716ZM65.3746 86.5314C66.9367 88.0935 69.4693 88.0935 71.0314 86.5314C72.5935 84.9693 72.5935 82.4367 71.0314 80.8746L65.3746 86.5314ZM266.032 55.8284C267.594 54.2663 267.594 51.7337 266.032 50.1716C264.469 48.6095 261.937 48.6095 260.375 50.1716L266.032 55.8284ZM229.672 80.8746C228.11 82.4367 228.11 84.9693 229.672 86.5314C231.234 88.0935 233.766 88.0935 235.329 86.5314L229.672 80.8746ZM122.607 292.999C140.507 292.521 150.215 292.612 167.41 292.999L167.59 285.001C150.307 284.612 140.462 284.52 122.393 285.001L122.607 292.999ZM122.724 302.994C140.105 302.02 149.803 302.359 167.355 302.997L167.645 295.003C150.049 294.363 140.045 294.011 122.276 295.006L122.724 302.994ZM132.231 312.991C142.058 313.652 147.71 313.631 157.754 312.992L157.246 305.008C147.524 305.627 142.221 305.645 132.769 305.009L132.231 312.991ZM62.4887 150.302C65.7334 107.479 102.458 69.501 145.732 66.9933L145.269 59.0067C97.7914 61.758 58.0434 103.086 54.5116 149.698L62.4887 150.302ZM145.668 66.9965C196.431 64.8594 233.449 101.849 228.521 149.589L236.479 150.411C241.96 97.3018 200.435 56.6837 145.332 59.0035L145.668 66.9965ZM76.5125 204.66C88.4154 218.03 96.5238 228.591 102.421 239.787C108.299 250.943 112.08 262.923 115.066 279.221L122.935 277.779C119.853 260.955 115.865 248.142 109.499 236.058C103.154 224.013 94.5458 212.885 82.4877 199.34L76.5125 204.66ZM175.416 279.314C181.468 250.206 190.618 235.503 215.138 204.48L208.862 199.52C184.053 230.907 174.01 246.778 167.584 277.686L175.416 279.314ZM82.3845 199.229C73.2184 189.689 68.1329 182.387 65.367 175.155C62.6137 167.956 62.014 160.451 62.4957 150.188L54.5045 149.812C54.0013 160.533 54.5685 169.315 57.8948 178.013C61.2086 186.678 67.1156 194.884 76.6158 204.771L82.3845 199.229ZM215.294 204.269C222.571 193.704 227.354 185.357 230.574 177.026C233.805 168.666 235.388 160.511 236.477 150.43L228.523 149.57C227.476 159.265 226.001 166.668 223.112 174.142C220.211 181.647 215.813 189.412 208.706 199.731L215.294 204.269ZM119 282.5H171.5V274.5H119V282.5ZM115.201 277.248C114.363 279.791 113.647 282.795 114.411 285.716C115.262 288.971 117.646 291.158 120.817 292.629L124.183 285.371C122.37 284.53 122.204 283.896 122.151 283.693C122.01 283.156 122.037 282.065 122.799 279.752L115.201 277.248ZM164.468 291.609C165.772 293.124 165.706 293.633 165.703 293.691C165.691 294.011 165.497 294.769 164.159 296.8L170.84 301.2C172.199 299.138 173.591 296.739 173.697 294.003C173.814 291.006 172.4 288.561 170.532 286.391L164.468 291.609ZM118.504 298.83C118.36 302.214 118.42 306.256 121.008 309.199C123.647 312.201 127.842 312.916 132.427 312.999L132.573 305.001C128.155 304.92 127.201 304.128 127.017 303.918C126.781 303.649 126.343 302.773 126.496 299.17L118.504 298.83ZM141.5 4V44.3116H149.5V4H141.5ZM247.5 141H289.5V133H247.5V141ZM4 141H42.067V133H4V141ZM34.6716 55.8284L65.3746 86.5314L71.0314 80.8746L40.3284 50.1716L34.6716 55.8284ZM260.375 50.1716L229.672 80.8746L235.329 86.5314L266.032 55.8284L260.375 50.1716Z" fill="white"/>
</svg>
