<svg width="176" height="173" viewBox="0 0 176 173" fill="none" xmlns="http://www.w3.org/2000/svg">
<path d="M155.969 94.9429C155.969 108.615 156.212 110.281 156.212 123.952" stroke="white" stroke-width="4" stroke-linecap="round"/>
<path d="M24.9688 103.452C24.9688 117.125 25.2117 118.79 25.2117 132.461" stroke="white" stroke-width="4" stroke-linecap="round"/>
<path d="M85.6716 22.4522C122.023 22.4522 160.645 38.5882 149.877 72.9521C139.11 107.316 122.023 123.452 85.6716 123.452C49.32 123.452 35.4233 115.384 21.4657 72.9522C7.5081 30.5202 49.32 22.4522 85.6716 22.4522Z" fill="#A9A9A9"/>
<path d="M88.2114 142.952C93.8653 143.092 101.152 139.363 101.152 139.363C101.152 139.363 131.042 125.39 142.212 111.728C153.76 98.5289 164.588 78.303 171.908 58.4522C173.982 44.8074 172.439 36.1731 170.165 29.4295C167.72 19.2817 157.426 10.8632 149.038 5.85131C138.99 1.01577 128.098 2.98947 117.977 7.33273C109.682 11.4957 102.701 18.7508 97.4787 24.005C96.7 24.9811 90.606 33.6293 90.606 33.6293C89.4701 35.4701 88.5969 36.3207 87.7113 36.2133M87.6057 142.926C81.9519 143.066 74.534 139.337 74.534 139.337C71.2114 137.452 41.8421 126.816 33.4741 111.703C20.4849 97.6653 7.55662 79.1142 3.77795 58.4263C1.92466 46.6491 3.73747 36.2729 5.52084 29.4036C7.4177 17.906 16.6431 8.64228 26.6473 5.82543C37.2868 0.859467 48.2825 3.13505 57.7087 7.30686C65.7822 11.062 73.0102 18.0561 78.207 23.9791C78.9857 24.9552 85.0797 33.6035 85.0797 33.6035C86.1021 35.2384 86.9118 36.1163 87.7113 36.2133M87.7113 36.2133V42.9409" stroke="white" stroke-width="5" stroke-linecap="round"/>
<path d="M75.8524 85.1432C74.6212 114.85 96.9109 110.492 99.0118 86.4513" stroke="white" stroke-width="5" stroke-linecap="round"/>
<circle cx="48.4517" cy="44.9924" r="11.3471" transform="rotate(-1.71353 48.4517 44.9924)" stroke="white" stroke-width="4"/>
<circle cx="126.74" cy="47.7403" r="11.3471" transform="rotate(-1.71353 126.74 47.7403)" stroke="white" stroke-width="4"/>
<circle cx="48.4383" cy="49.4383" r="5.28273" transform="rotate(-1.71353 48.4383 49.4383)" fill="black"/>
<circle cx="126.727" cy="52.1862" r="5.28273" transform="rotate(-1.71353 126.727 52.1862)" fill="black"/>
<path d="M62.7512 134.452C62.7512 140.964 62.7512 147.476 62.7512 153.988C62.7512 155.971 62.6366 157.993 62.7964 159.971C62.9574 161.963 63.5656 163.846 63.5656 165.831C63.5656 166.576 63.5771 167.585 63.8145 168.297C64.0714 169.067 66.0132 168.659 66.5519 168.659C68.1807 168.659 69.838 168.756 71.4612 168.636C72.6229 168.55 73.1765 168.032 74.0516 167.448C75.2006 166.682 71.1487 165.745 70.8843 165.706C69.2962 165.473 67.5136 165.496 65.9411 165.854C65.6393 165.922 64.6909 166.651 65.4547 166.804C66.8497 167.083 68.3389 167.234 69.7645 167.234C70.0931 167.234 71.5756 167.408 70.6242 166.939C69.4159 166.344 67.987 165.808 66.6198 165.808" stroke="white" stroke-width="4" stroke-linecap="round"/>
<path d="M110.751 136.452C110.751 142.964 110.751 149.476 110.751 155.988C110.751 157.971 110.637 159.993 110.796 161.971C110.957 163.963 111.566 165.846 111.566 167.831C111.566 168.576 111.577 169.585 111.815 170.297C112.071 171.067 114.013 170.659 114.552 170.659C116.181 170.659 117.838 170.756 119.461 170.636C120.623 170.55 121.177 170.032 122.052 169.448C123.201 168.682 119.149 167.745 118.884 167.706C117.296 167.473 115.514 167.496 113.941 167.854C113.639 167.922 112.691 168.651 113.455 168.804C114.85 169.083 116.339 169.234 117.764 169.234C118.093 169.234 119.576 169.408 118.624 168.939C117.416 168.344 115.987 167.808 114.62 167.808" stroke="white" stroke-width="4" stroke-linecap="round"/>
<path d="M155.899 124.452C155.681 124.605 155.613 124.992 155.508 125.221C155.134 126.036 154.732 126.85 154.322 127.647C153.442 129.357 152.08 130.701 151.194 132.406C150.588 133.573 149.969 134.569 149.711 135.857" stroke="white" stroke-width="4" stroke-linecap="round"/>
<path d="M24.8992 132.962C24.6808 133.114 24.613 133.502 24.5083 133.73C24.1344 134.546 23.7325 135.359 23.3219 136.157C22.4415 137.867 21.08 139.21 20.1943 140.915C19.588 142.083 18.9691 143.078 18.7114 144.367" stroke="white" stroke-width="4" stroke-linecap="round"/>
<path d="M156.749 125.059C156.822 125.865 157.394 126.566 157.679 127.31C158.464 129.364 159.236 131.392 160.254 133.343C160.681 134.162 161.268 134.811 161.723 135.493" stroke="white" stroke-width="4" stroke-linecap="round"/>
<path d="M25.7485 133.568C25.8218 134.374 26.3943 135.075 26.6787 135.819C27.4641 137.873 28.2358 139.901 29.2536 141.852C29.6809 142.671 30.2681 143.32 30.723 144.002" stroke="white" stroke-width="4" stroke-linecap="round"/>
<path d="M155.535 126.272C155.535 130.642 155.656 135.006 155.656 139.376" stroke="white" stroke-width="4" stroke-linecap="round"/>
<path d="M24.5352 134.781C24.5352 139.151 24.6565 143.515 24.6565 147.885" stroke="white" stroke-width="4" stroke-linecap="round"/>
</svg>
